<svg xmlns="http://www.w3.org/2000/svg" version="1.1" width="48" height="16" style=""><rect id="backgroundrect" width="100%" height="100%" x="0" y="0" fill="none" stroke="none" style="" class=""/>



<g class="currentLayer" style=""><title>Layer 1</title><path fill="#756c64" d="M38.83555248721644,7.577313744596705 Q40.80098126313337,7.382705471699402 39.44180414943958,6.020447561418284 Q37.61327091015367,4.185569559815144 36.899458469149,1.887338527504142 C36.703893416818964,1.257178405741448 37.04666028403783,-0.670453605548792 37.86750547818272,0.18219937449920462 A0.9973817668832214,0.9452401826440413 0 0 1 38.31730509854182,0.7660241931911123 Q39.872047264565666,6.98422186529064 46.69726759088419,7.512444320297605 C48.673002645058915,7.790622945813376 47.13728895862678,8.559622169697375 46.501702538554134,8.596690412154006 Q39.647147454386115,9.022975200405238 38.385752866857345,15.296775236189708 A0.8018167145531784,0.750631909746739 -88.9 0 1 37.73060994155169,15.899134176109934 Q36.4105458383239,16.075208327778917 36.919014974382016,14.314466811089039 Q37.662162173236176,11.72895689973916 39.686260464852126,9.949681261820965 Q41.162776609943954,8.661559836453105 39.15823482356101,8.661559836453105 Q20.305763778944822,8.707895139523892 1.3359537029306092,8.744963381980522 C-0.4534665258892889,8.744963381980522 -0.4241317680397823,7.345637229242773 1.2968406924646003,7.345637229242773 Q18.232774224246366,7.354904289856932 35.16870775602813,7.3363701686286165 Q35.70651164993574,7.3363701686286165 37.39814935259062,7.549512562754233 Q38.16085305667779,7.6514502295099645 38.83555248721644,7.577313744596705 z" id="svg_3" class=""/></g></svg>