<svg xmlns="http://www.w3.org/2000/svg" version="1.1" width="48" height="16" style=""><rect id="backgroundrect" width="100%" height="100%" x="0" y="0" fill="none" stroke="none" style="" class=""/>



<g class="currentLayer" style=""><title>Layer 1</title><path fill="#756c64" d="M8.842887443674364,7.5773137445967045 Q6.846372747585747,7.382705471699403 8.22704708965697,6.020447561418284 Q10.084501060644904,4.185569559815144 10.809603412955695,1.887338527504142 C11.008261591670987,1.2571784057414481 10.660073401836712,-0.6704536055487937 9.82624542831504,0.18219937449920495 A-1.013156711447962,0.9452401826440416 0 0 1 9.369331617269879,0.7660241931911133 Q7.789999096483356,6.984221865290641 0.8568286593198664,7.512444320297605 C-1.150155322787107,7.790622945813376 0.40984775721042865,8.559622169697375 1.0554868380351294,8.596690412154006 Q8.01845600200594,9.022975200405238 9.299801254719497,15.296775236189708 A-0.8144985327326763,0.750631909746739 -88.9 0 1 9.965306153415746,15.899134176109934 Q11.306248859743924,16.075208327778917 10.789737595084198,14.314466811089039 Q10.034836515966099,11.72895689973916 7.978724366262867,9.949681261820965 Q6.478855116962464,8.661559836453105 8.515101448794148,8.661559836453105 Q27.66574987694777,8.707895139523892 46.93559321233056,8.744963381980522 C48.753315547575454,8.744963381980522 48.72351682076814,7.345637229242773 46.975324848073626,7.345637229242773 Q29.7715265713298,7.354904289856931 12.567728294585962,7.3363701686286165 Q12.02141830311895,7.3363701686286165 10.303025057231721,7.5495125627542325 Q9.528258160242082,7.6514502295099645 8.842887443674364,7.5773137445967045 z" id="svg_3" class=""/></g></svg>