<svg xmlns="http://www.w3.org/2000/svg" version="1.1" width="96" height="155" style=""><rect id="backgroundrect" width="100%" height="100%" x="0" y="0" fill="none" stroke="none" style="" class=""/>





















































<g class="currentLayer" style=""><title>Layer 1</title><path fill="#483c30" d="M42.94999877929688,0.25460159301757557 A265.9,45.82 -0.5 0 1 80.51999877929688,0.17460159301757727 A220.17,10.01 -26.3 0 1 81.30999877929688,1.7746015930175787 A628.25,208.47 22.4 0 0 68.89999877929688,28.544601593017575 A472.91,36.29 77.9 0 0 67.28999877929687,44.83460159301758 A107.43,8.99 -88.9 0 0 66.99999877929687,60.02460159301758 A1,1 0 0 1 65.81999877929687,60.99460159301758 A615.63,250.58 -88.5 0 0 30.37999877929687,60.70460159301757 A1,1 0 0 1 29.219998779296873,59.69460159301758 L29.25999877929688,57.97460159301758 L29.40999877929687,47.95460159301757 L29.229998779296878,40.66460159301758 L28.68999877929687,34.38460159301758 L27.73999877929687,28.874601593017573 A653.08,212.63 -24.4 0 0 15.01999877929687,1.6246015930175801 A243.54,10.03 28.6 0 1 15.889998779296874,0.014601593017580683 A25.77,1.9100000000000001 4.6 0 0 19.51999877929687,0.2946015930175747 A69.36,16.37 -24 0 0 24.54999877929687,0.2946015930175747 L29.54999877929687,0.14460159301757614 L36.61999877929688,0.2046015930175784 L42.94999877929688,0.25460159301757557 zM63.83999877929688,3.574601593017576 A296.85,133.66 0.5 0 0 21.859998779296873,3.2946015930175747 A205.72,10.07 27.6 0 0 21.04999877929687,4.854601593017577 A1157.89,277.73 -25.6 0 1 32.45999877929688,42.904601593017574 A627.79,3.24 87.5 0 1 32.57999877929687,55.86460159301758 A1.01,1.01 0 0 0 33.71999877929687,56.88460159301758 A462.99,207.37 -88.5 0 1 63.039998779296866,57.544601593017575 A1,1 0 0 0 64.20999877929688,56.49460159301758 A177.6,162.23 2.2 0 1 64.64999877929688,33.55460159301758 L65.13999877929689,29.754601593017583 L65.87999877929687,25.904601593017574 L66.81999877929687,22.314601593017585 L67.88999877929689,19.20460159301757 A455.88,18.91 -54.9 0 1 74.73999877929688,4.964601593017576 A1,1 0 0 0 73.82999877929689,3.4946015930175776 A306.36,7.27 -6.2 0 1 63.83999877929688,3.574601593017576 z" id="svg_98" class=""/><path fill="#483c30" d="M78.95999877929688,71.43460159301759 L82.31999877929687,72.93460159301759 L85.67999877929688,74.85460159301758 L88.67999877929688,77.00460159301758 L91.28999877929687,79.32460159301758 L93.32999877929689,81.67460159301757 L94.83999877929688,84.03460159301758 L95.85999877929689,86.49460159301759 L96.30999877929688,88.88460159301758 L96.38999877929689,92.61460159301757 L96.09999877929687,96.91460159301758 L95.47999877929686,101.29460159301757 L94.55999877929688,105.44460159301758 A536.89,231.15 -26.9 0 1 79.06999877929687,146.44460159301758 L77.77999877929688,148.82460159301758 L76.45999877929688,150.70460159301757 L74.99999877929687,152.22460159301758 L73.32999877929689,153.4346015930176 L71.95999877929688,154.1246015930176 L70.43999877929687,154.63460159301758 L68.75999877929686,154.97460159301758 L66.90999877929687,155.1246015930176 A259.52,133.67 -0.1 0 1 30.209998779296882,155.00460159301758 L27.479998779296878,154.76460159301757 L25.219998779296873,154.28460159301758 L23.23999877929687,153.53460159301758 L21.48999877929687,152.4646015930176 L19.589998779296877,150.61460159301757 L18.00999877929688,148.1246015930176 A531.75,297.44 -53 0 1 1.529998779296875,104.13460159301758 L0.6999987792968767,100.02460159301756 L0.13999877929687443,95.15460159301759 L-0.0000012207031261368684,90.86460159301757 L0.259998779296879,87.30460159301757 L0.6499987792968795,85.47460159301758 L1.8899987792968744,82.38460159301758 L3.8399987792968773,79.45460159301757 L6.529998779296875,76.71460159301759 L9.89999877929688,74.23460159301757 L13.999998779296874,71.97460159301758 L18.68999877929687,70.02460159301756 L23.969998779296873,68.37460159301757 L29.459998779296882,67.14460159301758 L35.54999877929687,66.26460159301757 L41.79999877929687,65.78460159301758 L48.229998779296864,65.72460159301758 L54.68999877929687,66.07460159301758 L61.049998779296885,66.83460159301758 L67.28999877929687,67.99460159301758 L73.24999877929687,69.52460159301756 L78.95999877929688,71.43460159301759 zM87.58999877929688,80.32460159301758 L83.95999877929688,77.83460159301757 L80.10999877929689,75.63460159301758 L76.46999877929687,73.94460159301758 L72.58999877929688,72.49460159301759 L68.60999877929689,71.34460159301759 L64.36999877929688,70.43460159301759 L59.84999877929687,69.75460159301758 L55.009998779296865,69.31460159301758 L49.64999877929688,69.09460159301759 L43.59999877929687,69.06460159301758 L36.56999877929688,69.47460159301758 L29.669998779296876,70.50460159301758 L23.29999877929687,72.07460159301758 L17.62999877929687,74.16460159301758 L12.969998779296873,76.64460159301757 L10.989998779296869,78.02460159301756 L9.17999877929688,79.55460159301757 L7.669998779296876,81.12460159301759 L6.359998779296873,82.82460159301758 L5.309998779296876,84.57460159301758 L4.469998779296873,86.45460159301757 L3.78999877929688,88.78460159301758 L3.4499987792968767,91.30460159301757 L3.459998779296882,93.90460159301759 L3.8199987792968813,96.68460159301759 L4.959998779296882,102.07460159301758 L6.369998779296878,107.64460159301757 L8.049998779296871,113.37460159301759 L9.999998779296874,119.26460159301757 L14.65999877929687,131.4646015930176 L20.51999877929687,144.67460159301757 L22.419998779296876,147.9646015930176 L23.39999877929688,149.08460159301757 L24.499998779296874,149.9646015930176 L25.79999877929687,150.64460159301757 L27.309998779296876,151.11460159301757 L29.17999877929688,151.4046015930176 L31.39999877929688,151.51460159301757 A246.51,38.91 0.1 0 0 66.25999877929686,151.60460159301758 L68.93999877929687,151.32460159301758 L71.23999877929688,150.58460159301757 L73.18999877929687,149.36460159301757 L74.54999877929689,147.78460159301758 L74.79999877929689,147.35460159301758 A754.75,136.14 85.7 0 0 90.07999877929689,109.40460159301759 L91.52999877929688,104.50460159301758 L92.48999877929688,100.47460159301758 L93.06999877929687,96.80460159301757 L93.28999877929687,93.43460159301759 L93.11999877929688,90.38460159301758 L92.57999877929689,87.67460159301757 L91.62999877929687,85.16460159301758 L90.31999877929687,83.03460159301758 L89.08999877929688,81.61460159301757 L87.58999877929688,80.32460159301758 z" id="svg_119" class=""/></g></svg>